HIERARCHY
ROOT hip
{
  OFFSET 0 0 0
  CHANNELS 6 Xposition Yposition Zposition Zrotation Yrotation Xrotation
  JOINT abdomen
  {
    OFFSET 0 20.6881 -0.73152
    CHANNELS 3 Zrotation Xrotation Yrotation
    JOINT chest
    {
      OFFSET 0 11.7043 -0.48768
      CHANNELS 3 Zrotation Xrotation Yrotation
      JOINT neck
      {
        OFFSET 0 22.1894 -2.19456
        CHANNELS 3 Zrotation Xrotation Yrotation
        JOINT head
        {
          OFFSET -0.24384 7.07133 1.2192
          CHANNELS 3 Zrotation Xrotation Yrotation
          JOINT leftEye
          {
            OFFSET 4.14528 8.04674 8.04672
            CHANNELS 3 Zrotation Xrotation Yrotation
            End Site
            {
              OFFSET 1 0 0
            }
          }
          JOINT rightEye
          {
            OFFSET -3.6576 8.04674 8.04672
            CHANNELS 3 Zrotation Xrotation Yrotation
            End Site
            {
              OFFSET 1 0 0
            }
          }
        }
      }
      JOINT rCollar
      {
        OFFSET -2.68224 19.2634 -4.8768
        CHANNELS 3 Zrotation Xrotation Yrotation
        JOINT rShldr
        {
          OFFSET -8.77824 -1.95073 1.46304
          CHANNELS 3 Zrotation Xrotation Yrotation
          JOINT rForeArm
          {
            OFFSET -28.1742 -1.7115 0.48768
            CHANNELS 3 Zrotation Xrotation Yrotation
            JOINT rHand
            {
              OFFSET -22.5879 0.773209 7.07136
              CHANNELS 3 Zrotation Xrotation Yrotation
              JOINT rThumb1
              {
                OFFSET -1.2192 -0.487915 3.41376
                CHANNELS 3 Zrotation Xrotation Yrotation
                JOINT rThumb2
                {
                  OFFSET -3.37035 -0.52449 3.41376
                  CHANNELS 3 Zrotation Xrotation Yrotation
                  End Site
                  {
                    OFFSET -1.78271 -1.18214 1.43049
                  }
                }
              }
              JOINT rIndex1
              {
                OFFSET -7.75947 0.938293 5.60832
                CHANNELS 3 Zrotation Xrotation Yrotation
                JOINT rIndex2
                {
                  OFFSET -2.54057 -0.884171 1.56538
                  CHANNELS 3 Zrotation Xrotation Yrotation
                  End Site
                  {
                    OFFSET -1.62519 -0.234802 1.16502
                  }
                }
              }
              JOINT rMid1
              {
                OFFSET -8.24714 1.18213 3.41376
                CHANNELS 3 Zrotation Xrotation Yrotation
                JOINT rMid2
                {
                  OFFSET -3.10165 -0.590103 1.0647
                  CHANNELS 3 Zrotation Xrotation Yrotation
                  End Site
                  {
                    OFFSET -2.48547 -0.328903 0.83742
                  }
                }
              }
              JOINT rRing1
              {
                OFFSET -8.82822 0.546677 1.51678
                CHANNELS 3 Zrotation Xrotation Yrotation
                JOINT rRing2
                {
                  OFFSET -2.60934 -0.819778 -0.0198488
                  CHANNELS 3 Zrotation Xrotation Yrotation
                  End Site
                  {
                    OFFSET -2.33842 -0.294052 0.168128
                  }
                }
              }
              JOINT rPinky1
              {
                OFFSET -8.27202 -0.0477905 -0.4584
                CHANNELS 3 Zrotation Xrotation Yrotation
                JOINT rPinky2
                {
                  OFFSET -1.82734 -0.647385 -0.700984
                  CHANNELS 3 Zrotation Xrotation Yrotation
                  End Site
                  {
                    OFFSET -1.69225 -0.51767 -0.607171
                  }
                }
              }
            }
          }
        }
      }
      JOINT lCollar
      {
        OFFSET 2.68224 19.2634 -4.8768
        CHANNELS 3 Zrotation Xrotation Yrotation
        JOINT lShldr
        {
          OFFSET 8.77824 -1.95073 1.46304
          CHANNELS 3 Zrotation Xrotation Yrotation
          JOINT lForeArm
          {
            OFFSET 28.1742 -1.7115 0.48768
            CHANNELS 3 Zrotation Xrotation Yrotation
            JOINT lHand
            {
              OFFSET 22.5879 0.773209 7.07136
              CHANNELS 3 Zrotation Xrotation Yrotation
              JOINT lThumb1
              {
                OFFSET 1.2192 -0.487915 3.41376
                CHANNELS 3 Zrotation Xrotation Yrotation
                JOINT lThumb2
                {
                  OFFSET 3.37035 -0.52449 3.41376
                  CHANNELS 3 Zrotation Xrotation Yrotation
                  End Site
                  {
                    OFFSET 1.78271 -1.18214 1.43049
                  }
                }
              }
              JOINT lIndex1
              {
                OFFSET 7.75947 0.938293 5.60832
                CHANNELS 3 Zrotation Xrotation Yrotation
                JOINT lIndex2
                {
                  OFFSET 2.54057 -0.884171 1.56538
                  CHANNELS 3 Zrotation Xrotation Yrotation
                  End Site
                  {
                    OFFSET 1.62519 -0.234802 1.16502
                  }
                }
              }
              JOINT lMid1
              {
                OFFSET 8.24714 1.18213 3.41376
                CHANNELS 3 Zrotation Xrotation Yrotation
                JOINT lMid2
                {
                  OFFSET 3.10165 -0.590103 1.0647
                  CHANNELS 3 Zrotation Xrotation Yrotation
                  End Site
                  {
                    OFFSET 2.48547 -0.328903 0.83742
                  }
                }
              }
              JOINT lRing1
              {
                OFFSET 8.82822 0.546677 1.51678
                CHANNELS 3 Zrotation Xrotation Yrotation
                JOINT lRing2
                {
                  OFFSET 2.60934 -0.819778 -0.0198488
                  CHANNELS 3 Zrotation Xrotation Yrotation
                  End Site
                  {
                    OFFSET 2.33842 -0.294052 0.168128
                  }
                }
              }
              JOINT lPinky1
              {
                OFFSET 8.27202 -0.0477905 -0.4584
                CHANNELS 3 Zrotation Xrotation Yrotation
                JOINT lPinky2
                {
                  OFFSET 1.82734 -0.647385 -0.700984
                  CHANNELS 3 Zrotation Xrotation Yrotation
                  End Site
                  {
                    OFFSET 1.69225 -0.51767 -0.607171
                  }
                }
              }
            }
          }
        }
      }
    }
  }
  JOINT rButtock
  {
    OFFSET -8.77824 4.35084 1.2192
    CHANNELS 3 Zrotation Xrotation Yrotation
    JOINT rThigh
    {
      OFFSET 0 -1.70687 -2.19456
      CHANNELS 3 Zrotation Xrotation Yrotation
      JOINT rShin
      {
        OFFSET 0 -36.8199 0.73152
        CHANNELS 3 Zrotation Xrotation Yrotation
        JOINT rFoot
        {
          OFFSET 0.73152 -45.1104 -5.12064
          CHANNELS 3 Zrotation Xrotation Yrotation
          End Site
          {
            OFFSET -1.1221 -3.69964 12.103
          }
        }
      }
    }
  }
  JOINT lButtock
  {
    OFFSET 8.77824 4.35084 1.2192
    CHANNELS 3 Zrotation Xrotation Yrotation
    JOINT lThigh
    {
      OFFSET 0 -1.70687 -2.19456
      CHANNELS 3 Zrotation Xrotation Yrotation
      JOINT lShin
      {
        OFFSET 0 -36.8199 0.73152
        CHANNELS 3 Zrotation Xrotation Yrotation
        JOINT lFoot
        {
          OFFSET -0.73152 -45.1104 -5.12064
          CHANNELS 3 Zrotation Xrotation Yrotation
          End Site
          {
            OFFSET 1.1221 -3.69964 12.103
          }
        }
      }
    }
  }
}
MOTION
Frames:	5
Frame Time:	0.00833333
-7.52766 63.5049 -179.875 0.0 0.0 0.0 -1.7443 -0.00324519 -0.0476279 -0.481547 0.00120945 -0.0833922 4.02174e-14 0.0 -6.4605e-16 1.20336e-13 3.18055e-15 -2.0158e-15 -0.0 0.0 0.0 -0.0 0.0 0.0 2.01759e-14 -6.7944e-18 -1.49089e-16 4.22322e-13 -3.35449e-16 -4.17448e-15 7.24391e-12 -2.17431e-12 -1.55847e-13 8.30233e-11 2.14928e-12 -1.19271e-12 1.95814e-10 -5.03559e-14 -2.92929e-12 3.38157e-10 -8.26944e-14 -5.07378e-12 1.9582e-10 -4.96962e-14 -2.94201e-12 7.73091 5.47488 0.417314 1.95814e-10 -5.06901e-14 -2.92929e-12 2.90554 0.965183 0.102902 1.9582e-10 -4.99943e-14 -2.93247e-12 10.2786 0.731801 0.0259123 1.95806e-10 -4.73108e-14 -2.92611e-12 2.22167 -0.733487 -0.20892 1.98805e-14 -7.76503e-18 -5.46658e-16 4.20376e-13 -5.2181e-16 -5.76476e-15 7.26772e-12 2.159e-12 -2.22639e-13 8.30094e-11 -2.18894e-12 -1.11001e-12 1.9584e-10 -6.02338e-14 -2.93565e-12 3.38219e-10 -1.01778e-13 -5.06185e-12 1.95836e-10 -6.20208e-14 -2.93247e-12 -7.73091 5.47488 -0.417314 1.95841e-10 -6.07287e-14 -2.93565e-12 -2.90554 0.965183 -0.102902 1.95836e-10 -6.05299e-14 -2.93247e-12 -10.2786 0.731801 -0.0259123 1.95845e-10 -5.80451e-14 -2.93565e-12 -2.22167 -0.733487 0.20892 -2.03217e-16 0.0 -3.88251e-19 -0.870905 -1.92409 -0.00260108 -0.00879615 -2.07862 -0.072374 -0.452064 3.99793 0.131439 2.03217e-16 0.0 3.88251e-19 -1.78877 -6.94304 0.172905 -0.0035642 7.01274 -0.0919608 0.487793 -0.0744015 -0.0538559
-11.3021 60.948 -182.195 -9.3416 -27.1918 6.3428 0.212773 2.74252 2.43071 0.0157512 -2.00682 0.671092 -2.92253 4.22825 -2.62008 4.17157 -5.27243 -4.53216 -0.0 0.0 0.0 -0.0 0.0 0.0 -6.31592e-14 -1.11387e-13 -1.23615e-13 19.291 11.0917 0.0965883 -5.89697 -3.1271 8.67236 0.0127666 2.50687 0.3511 6.78323e-10 -9.03729e-10 5.2413e-10 1.1761e-09 -1.5636e-09 9.02116e-10 6.78328e-10 -9.03728e-10 5.24117e-10 7.73091 5.47488 0.417314 6.78323e-10 -9.03729e-10 5.24127e-10 2.90554 0.965183 0.102902 6.7833e-10 -9.03729e-10 5.24127e-10 10.2786 0.731801 0.0259123 6.78317e-10 -9.03727e-10 5.24136e-10 2.22167 -0.733487 -0.20892 -6.3392e-14 -1.11387e-13 -1.23927e-13 -20.7123 4.49623 -1.57461 3.83833 -1.67451 -6.06842 -0.0619683 5.52664 -0.763726 6.94505e-10 6.06688e-10 1.63397e-10 1.19985e-09 1.03837e-09 2.72996e-10 6.94502e-10 6.06687e-10 1.63403e-10 -7.73091 5.47488 -0.417314 6.94506e-10 6.06688e-10 1.63399e-10 -2.90554 0.965183 -0.102902 6.94502e-10 6.06689e-10 1.63401e-10 -10.2786 0.731801 -0.0259123 6.94511e-10 6.06691e-10 1.63396e-10 -2.22167 -0.733487 0.20892 -2.03217e-16 0.0 -3.88251e-19 -3.80162 1.12681 -1.19219 0.244173 8.08771 0.394917 -0.991479 -3.40003 -7.86472 2.03217e-16 0.0 3.88251e-19 4.95156 -22.5331 9.74171 0.117596 25.5548 -0.33512 0.545056 -2.31365 0.434452
-11.2968 60.9469 -182.196 -9.3198 -27.1929 6.3383 2.02453 5.62938 5.06916 0.598287 -4.1283 1.47158 -5.58788 8.66752 -5.43702 7.66465 -10.7371 -9.44928 -0.0 0.0 0.0 -0.0 0.0 0.0 -1.52836e-13 -2.35265e-13 -2.4991e-13 39.6398 22.8202 0.211981 -11.1143 -6.19498 17.9233 -0.00725996 5.15375 0.724094 1.16649e-09 -1.86309e-09 1.08875e-09 2.02413e-09 -3.2236e-09 1.87422e-09 1.16649e-09 -1.86309e-09 1.08873e-09 7.73091 5.47488 0.417314 1.16649e-09 -1.86309e-09 1.08874e-09 2.90554 0.965183 0.102902 1.1665e-09 -1.86309e-09 1.08874e-09 10.2786 0.731801 0.0259123 1.16649e-09 -1.86309e-09 1.08876e-09 2.22167 -0.733487 -0.20892 -1.53001e-13 -2.35265e-13 -2.5013e-13 -42.3372 9.23737 -3.27044 7.51334 -3.38256 -12.5013 0.0356314 11.3664 -1.59517 1.16955e-09 1.18224e-09 2.9863e-10 2.02001e-09 2.0229e-09 4.97734e-10 1.16955e-09 1.18224e-09 2.98639e-10 -7.73091 5.47488 -0.417314 1.16956e-09 1.18224e-09 2.98634e-10 -2.90554 0.965183 -0.102902 1.16955e-09 1.18224e-09 2.98634e-10 -10.2786 0.731801 -0.0259123 1.16956e-09 1.18224e-09 2.98628e-10 -2.22167 -0.733487 0.20892 -2.03217e-16 0.0 -3.88251e-19 -6.76096 4.34907 -2.45554 0.322683 18.8326 0.93057 -3.80965 -10.8266 -16.5937 2.03217e-16 0.0 3.88251e-19 18.9407 -37.2594 23.2559 0.488372 45.1552 -0.745157 0.64707 -4.68087 0.952404
-11.271 60.9456 -182.18 -9.1393 -27.2058 6.2286 3.41032 8.17272 7.45518 1.16969 -6.01892 2.19091 -7.58732 12.5774 -8.03281 9.95991 -15.4146 -14.0542 -0.0 0.0 0.0 -0.0 0.0 0.0 -2.2983e-13 -3.34147e-13 -3.70545e-13 57.7421 33.2748 0.340115 -14.9334 -8.52322 26.2902 -0.0545458 7.51947 1.06142 1.64334e-09 -2.71109e-09 1.57825e-09 2.852e-09 -4.69063e-09 2.7165e-09 1.64334e-09 -2.71108e-09 1.57823e-09 7.73091 5.47488 0.417314 1.64334e-09 -2.71109e-09 1.57824e-09 2.90554 0.965183 0.102902 1.64335e-09 -2.71109e-09 1.57825e-09 10.2786 0.731801 0.0259123 1.64334e-09 -2.71109e-09 1.57826e-09 2.22167 -0.733487 -0.20892 -2.29937e-13 -3.34145e-13 -3.70688e-13 -61.3787 13.4474 -4.84236 10.4676 -4.79856 -18.2637 0.272259 16.5679 -2.37937 1.69184e-09 1.82018e-09 4.96063e-10 2.9231e-09 3.1153e-09 8.29113e-10 1.69183e-09 1.82019e-09 4.96074e-10 -7.73091 5.47488 -0.417314 1.69184e-09 1.82019e-09 4.96068e-10 -2.90554 0.965183 -0.102902 1.69183e-09 1.82019e-09 4.96067e-10 -10.2786 0.731801 -0.0259123 1.69184e-09 1.82019e-09 4.9606e-10 -2.22167 -0.733487 0.20892 -2.03217e-16 0.0 -3.88251e-19 -9.28092 7.21525 -3.59922 0.198588 28.4128 1.49811 -8.28336 -16.6871 -24.9313 2.03217e-16 0.0 3.88251e-19 39.4244 -46.7742 40.8817 1.34839 62.6313 -1.57605 0.77475 -6.79028 1.41997
-11.3045 60.9457 -182.199 -9.2995 -27.1905 6.3495 4.23862 9.91582 9.14539 1.60061 -7.33617 2.69693 -8.76131 15.2657 -9.91168 11.0834 -18.5072 -17.4415 -0.0 0.0 0.0 -0.0 0.0 0.0 -2.75116e-13 -3.70536e-13 -4.77034e-13 70.3268 40.545 0.45298 -17.1709 -9.82217 32.1856 -0.104564 9.18336 1.30192 2.0919e-09 -3.28069e-09 1.87997e-09 3.62944e-09 -5.67522e-09 3.23422e-09 2.0919e-09 -3.28069e-09 1.87995e-09 7.73091 5.47488 0.417314 2.0919e-09 -3.28069e-09 1.87995e-09 2.90554 0.965183 0.102902 2.09191e-09 -3.28069e-09 1.87996e-09 10.2786 0.731801 0.0259123 2.0919e-09 -3.28069e-09 1.87998e-09 2.22167 -0.733487 -0.20892 -2.75187e-13 -3.70534e-13 -4.77133e-13 -74.5014 16.3686 -5.99204 12.3526 -5.69904 -22.2944 0.527258 20.185 -2.96162 2.3322e-09 2.61412e-09 8.48995e-10 4.0335e-09 4.47736e-09 1.4271e-09 2.3322e-09 2.61413e-09 8.49008e-10 -7.73091 5.47488 -0.417314 2.3322e-09 2.61413e-09 8.49001e-10 -2.90554 0.965183 -0.102902 2.33219e-09 2.61413e-09 8.48998e-10 -10.2786 0.731801 -0.0259123 2.3322e-09 2.61413e-09 8.48992e-10 -2.22167 -0.733487 0.20892 -2.03217e-16 0.0 -3.88251e-19 -10.9725 9.20452 -4.41412 -0.0273372 35.0883 1.9827 -12.4815 -20.1312 -31.145 2.03217e-16 0.0 3.88251e-19 58.1875 -49.9294 56.4056 3.11981 74.7986 -3.29331 0.885303 -8.25696 1.75308
